<?xml version="1.0" encoding="utf-8"?>
<!-- Generator: Adobe Illustrator 19.2.1, SVG Export Plug-In . SVG Version: 6.00 Build 0)  -->
<svg version="1.1" id="layer" xmlns="http://www.w3.org/2000/svg" xmlns:xlink="http://www.w3.org/1999/xlink" x="0px" y="0px"
	 viewBox="0 0 652 652" style="enable-background:new 0 0 652 652;" xml:space="preserve">
<style type="text/css">
	.st0{fill:#6F6F6F;}
	.st1{fill:#0066B1;}
</style>
<path class="st0" d="M322.1,70.7C184,70.5,71.9,182.2,71.7,320.3c-0.2,138.1,111.5,250.2,249.6,250.4s250.2-111.5,250.4-249.6
	c0-0.1,0-0.3,0-0.4C571.6,182.8,459.9,71,322.1,70.7z M554.8,320.7c0,128.5-104.2,232.7-232.7,232.7S89.4,449.2,89.4,320.7
	S193.6,88,322.1,88c128.5,0.1,232.8,104.2,233.1,232.7H554.8z M322.1,172.3v8l0,0c76.9,0.2,139.2,62.5,139.4,139.4h8
	c0.2-81.2-65.4-147.2-146.6-147.4C322.6,172.3,322.3,172.3,322.1,172.3L322.1,172.3 M322.1,460.1c-76.9-0.2-139.2-62.5-139.4-139.4
	h-8c0.2,81.9,66.5,148.2,148.4,148.4 M442.6,215.5c3.4,4.5,7.1,8.8,11,13l50.6-31.9c-3.6-3.8-7-7.8-10.1-11.9l-31.6,20.7l-1.9,1.9
	l1.9-1.9l14-27.9l-10.1-10.1l-27.9,13.9l-2,2l2-2l20.9-31.9c-4-2.9-7-6-11.9-10.1l-31.9,50.6c3.9,3,8.9,8,13,10.9l30-15.6l2-1l-1,2
	L442.6,215.5z M328,150.3l14-30.9l1-3v3l1,41.8c5,0.2,10,0.9,14.9,2l-1.9-60.7c-7-1-14-1-20.9-2l-14,34l0,0l-13.5-34
	c-7,0.2-14,0.8-20.8,2l-2,60.7c5-1,10.1-1,15-2l0.9-41.8v-3l1,3l14,30.9H328z M216.6,199.2c7.9-8,13-18,5-27.9
	c-4.7-4.7-11.7-6.3-17.9-3.9h-1v-1c1.3-5.6-0.8-11.4-5.3-15c-2.9-2.9-7.1-4.1-11-3c-8,1-13,6.1-28.8,23c-5.1,5-11.9,14-16,18.9
	l42.9,40.5C199.6,217.1,205.5,211.1,216.6,199.2z M160.7,189.1c6.9-8.4,14.2-16.5,22-24.2c1.5-1.2,3.2-2.3,5-3
	c2.2-0.9,4.8,0.2,5.7,2.4c0.2,0.5,0.3,1.1,0.3,1.6c0.6,3-0.6,6-2.9,7.9c-5.1,5.1-22,23-22,23L160.7,189.1z M177.7,205.4
	c0,0,15.9-17,21.9-23c2-1.9,4-3.9,5-3.9c1.9-1,4.1-1,6,0c1.9,0.6,2.8,2.6,2.2,4.5c-0.1,0.2-0.1,0.3-0.2,0.5c-1,2-2.9,5-3.9,7
	l-22,22.9L177.7,205.4z"/>
<path class="st1" d="M322.1,172.3v148.4H173.7C173.8,238.8,240.2,172.5,322.1,172.3z"/>
<path class="st1" d="M470.5,320.7c0.1,81.9-66.2,148.3-148,148.4c-0.1,0-0.3,0-0.4,0V320.7H470.5z"/>
</svg>
